<svg xmlns="http://www.w3.org/2000/svg" width="84" height="84" viewBox="0 0 84 84"><g><g><g><path fill="#404040" d="M11.484 84c1.036 0 1.877-.84 1.877-1.877v-5.258h68.762a1.877 1.877 0 1 0 0-3.754H13.361V1.877a1.877 1.877 0 1 0-3.754 0V73.11h-7.73a1.877 1.877 0 1 0 0 3.754h7.73v5.258c0 1.037.84 1.877 1.877 1.877z"/></g><g><path fill="#404040" d="M17.394 75.427L31.88 61.18l9.42 9.867a1.993 1.993 0 0 0 3.382-.915l10.334-42.938 11.633 10.483a1.992 1.992 0 0 0 3.16-.678l12.02-27.189a2.005 2.005 0 0 0-.211-1.99 1.994 1.994 0 0 0-3.437.37L67.272 32.857 55.195 21.974a1.992 1.992 0 0 0-3.275 1.019L41.657 65.635l-8.292-8.685a1.996 1.996 0 0 0-1.411-.617 1.83 1.83 0 0 0-1.43.573L14.598 72.571a2.005 2.005 0 0 0 .864 3.356c.687.191 1.424 0 1.932-.5z"/></g></g></g></svg>