<svg xmlns="http://www.w3.org/2000/svg" width="84" height="86" viewBox="0 0 84 86"><g><g><g><path d="M14.635 0A51.602 51.602 0 0 1 14 2l.939-.797c-.094-.309-.22-.91-.304-1.203z"/></g><g><path d="M15.61 4l-3.16 3.117A38.012 38.012 0 0 1 11 10l5-4.92A36.207 36.207 0 0 1 15.61 4z"/></g><g><path d="M16.573 7L4.766 18.845C3.749 20.235 2.806 21.601 2 23L17 7.95c-.147-.307-.285-.632-.427-.95z"/></g><g><path d="M18.45 9L.333 27.165A15.676 15.676 0 0 0 0 29L19 9.983c-.187-.32-.369-.652-.55-.983z"/></g><g><path d="M20.413 12L0 31.687c.025.44.071.878.132 1.313L21 12.843c-.196-.281-.393-.553-.587-.843z"/></g><g><path d="M21.38 15L0 35.928c.105.361.22.72.35 1.072L22 15.836c-.208-.279-.412-.55-.62-.836z"/></g><g><path d="M24.39 17L2 39.11c.162.302.337.6.52.89L25 17.827c-.204-.272-.403-.55-.61-.827z"/></g><g><path d="M25.413 20L3 42.249c.22.26.458.507.698.751L26 20.827c-.19-.276-.39-.55-.587-.827z"/></g><g><path d="M26.495 22L5 43.445c.264.199.55.374.83.555L27 22.908c-.167-.303-.323-.608-.505-.908z"/></g><g><path d="M28.586 25L8 45.594c.338.15.696.28 1.053.406L29 26.042c-.123-.353-.27-.698-.414-1.042z"/></g><g><path d="M28.825 28L11 45.806c.415.077.836.147 1.272.194L29 29.264c-.041-.43-.1-.852-.175-1.264z"/></g><g><path d="M30 32L16 46c.547-.031 1.08-.088 1.6-.174l12.16-12.158c.109-.552.19-1.109.24-1.668z"/></g><g><path d="M28 38l-7 7"/></g><g><path d="M49.876 58.33c3.11 4.097 5.655 7.532 5.712 12.56.039 3.453-1.121 6.9-3.395 9.465-2.274 2.564-5.647 4.273-10.193 4.273-4.546 0-7.919-1.709-10.193-4.273-2.274-2.564-3.434-6.012-3.395-9.466.057-5.027 2.602-8.462 5.712-12.56 2.79-3.676 5.832-7.855 7.876-14.086 2.044 6.23 5.086 10.41 7.876 14.086zM42 40c-2.383 8.448-5.385 12.686-9.008 17.502-3.096 4.116-5.93 7.885-5.991 13.364-.042 3.765 1.215 7.538 3.742 10.387C33.271 84.103 37.087 86 42 86c4.913 0 8.729-1.898 11.257-4.747 2.527-2.85 3.784-6.622 3.742-10.387-.062-5.479-2.895-9.248-5.991-13.364C47.385 52.686 44.383 48.448 42 40z"/></g><g><path d="M68.992 0c-3.745 15.333-14.867 19.508-14.991 30.667C53.916 38.333 59.071 46 68.992 46 78.177 46 84 38.333 84 30.667 84 19.75 72.743 15.333 68.992 0z"/></g></g></g></svg>