<svg xmlns="http://www.w3.org/2000/svg" width="86" height="86" viewBox="0 0 86 86"><g><g><g><path fill="#404040" d="M69.083 62.196l3.126 1.806.09-.18c4.377-6.144 6.7-13.462 6.7-21.141.089-9.848-3.574-19.063-10.363-25.93C61.847 9.795 52.736 6 43.09 6 23.169 6 7 22.353 7 42.5S23.168 79 43.089 79c3.483 0 6.788-.452 9.915-1.446l.179-.09-.715-3.614-.268.09c-3.037.904-6.164 1.446-9.29 1.446-17.866 0-32.426-14.726-32.426-32.796 0-18.069 14.56-32.795 32.426-32.795 17.865 0 32.426 14.726 32.426 32.795 0 6.957-2.144 13.643-6.253 19.425z"/></g><g><path fill="#404040" d="M73.582 12.681C65.456 4.465 54.651 0 43.132 0c-4.02 0-7.859.536-11.52 1.607h-.179l.625 3.305h.268c3.572-.983 7.233-1.518 10.805-1.518 21.879 0 39.738 17.771 39.738 39.74S65.01 82.785 43.131 82.785c-21.878-.09-39.738-17.95-39.738-39.83 0-8.305 2.5-16.164 7.323-22.95l.178-.18-2.946-1.696-.09.178C2.768 25.541 0 34.114 0 43.045 0 66.71 19.289 86 42.953 86c23.753 0 43.042-19.29 43.042-42.955.178-11.431-4.287-22.237-12.413-30.364z"/></g><g><path fill="#404040" d="M43.321 53.385c-5.277 0-9.571-4.314-9.571-9.615 0-5.302 4.294-9.705 9.571-9.705 5.278 0 9.571 4.313 9.571 9.615 0 5.302-4.204 9.705-9.57 9.705zm18.427-13.03h-3.131a17.795 17.795 0 0 0-2.147-5.212l2.505-2.516c.179-.18.268-.45.268-.72 0-.269-.09-.538-.268-.718l-3.489-3.505a.97.97 0 0 0-1.342 0L51.55 30.29c-1.43-.898-3.04-1.527-4.65-1.977v-3.325a.995.995 0 0 0-.985-.988h-4.83a.995.995 0 0 0-.984.988v3.236c-1.79.359-3.4 1.078-4.83 1.976l-2.773-2.785a.97.97 0 0 0-1.342 0l-3.489 3.504c-.178.18-.268.45-.268.72 0 .269.09.538.268.718l2.684 2.696c-1.073 1.618-1.79 3.325-2.236 5.302h-3.131a.995.995 0 0 0-.984.988v4.853c0 .539.447.988.984.988h3.13c.358 1.708 1.074 3.325 1.969 4.763l-2.505 2.516c-.179.18-.268.45-.268.719 0 .27.09.54.268.719l3.489 3.505c.178.18.447.27.715.27.268 0 .537-.09.716-.27l2.415-2.427c1.61 1.079 3.399 1.798 5.367 2.247v2.786c0 .539.447.988.984.988h4.83c.537 0 .984-.45.984-.988v-2.876c1.878-.45 3.578-1.168 5.099-2.157l2.057 2.067c.179.18.447.27.716.27.268 0 .536-.09.715-.27l3.4-3.415c.178-.18.268-.449.268-.719 0-.27-.09-.539-.269-.718l-2.147-2.157c.895-1.438 1.521-3.055 1.968-4.853h3.131c.537 0 .984-.449.984-.988v-4.853c-.268-.539-.716-.988-1.252-.988z"/></g></g></g></svg>