<svg xmlns="http://www.w3.org/2000/svg" width="149" height="85" viewBox="0 0 149 85"><g><g><g><path fill="#404040" d="M18.024 4.888c0-1.031.842-1.87 1.875-1.87h111.199c1.033 0 1.876.839 1.876 1.87v71.454H18.024zm48.013 74.665c0 .134.36.447.957.447h17.012c.594 0 .955-.313.955-.447 0-.588.477-1.067 1.068-1.067H136V4.888C136 2.193 133.8 0 131.1 0H19.9C17.197 0 15 2.192 15 4.888v73.6h49.97a1.066 1.066 0 0 1 1.067 1.065z"/></g><g><path fill="#404040" d="M141.46 85c4.824 0 7.501-1.916 7.501-1.916l.039-.006V80H85.015c0 .845-.906 1.538-2.017 1.538H66.04c-1.11 0-2.017-.693-2.017-1.538H.039v3.078L0 83.084S2.678 85 7.502 85z"/></g></g></g></svg>